<svg style="position: absolute; width: 0; height: 0; overflow: hidden;" version="1.1" xmlns="http://www.w3.org/2000/svg" xmlns:xlink="http://www.w3.org/1999/xlink">
    <defs>
        <symbol id="icon-github" viewBox="0 0 32 32">
            <title>Github</title>
            <path class="path1" d="M16 0.395c-8.836 0-16 7.163-16 16 0 7.069 4.585 13.067 10.942 15.182 0.8 0.148 1.094-0.347 1.094-0.77 0-0.381-0.015-1.642-0.022-2.979-4.452 0.968-5.391-1.888-5.391-1.888-0.728-1.849-1.776-2.341-1.776-2.341-1.452-0.993 0.11-0.973 0.11-0.973 1.606 0.113 2.452 1.649 2.452 1.649 1.427 2.446 3.743 1.739 4.656 1.33 0.143-1.034 0.558-1.74 1.016-2.14-3.554-0.404-7.29-1.777-7.29-7.907 0-1.747 0.625-3.174 1.649-4.295-0.166-0.403-0.714-2.030 0.155-4.234 0 0 1.344-0.43 4.401 1.64 1.276-0.355 2.645-0.532 4.005-0.539 1.359 0.006 2.729 0.184 4.008 0.539 3.054-2.070 4.395-1.64 4.395-1.64 0.871 2.204 0.323 3.831 0.157 4.234 1.026 1.12 1.647 2.548 1.647 4.295 0 6.145-3.743 7.498-7.306 7.895 0.574 0.497 1.085 1.47 1.085 2.963 0 2.141-0.019 3.864-0.019 4.391 0 0.426 0.288 0.925 1.099 0.768 6.354-2.118 10.933-8.113 10.933-15.18 0-8.837-7.164-16-16-16z"></path>
        </symbol>
        <symbol id="icon-linkedin" viewBox="0 0 24 24">
            <title>Linkedin</title>
            <path class="path1" d="M20.447 20.452h-3.554v-5.569c0-1.328-.027-3.037-1.852-3.037-1.853 0-2.136 1.445-2.136 2.939v5.667H9.351V9h3.414v1.561h.046c.477-.9 1.637-1.85 3.37-1.85 3.601 0 4.267 2.37 4.267 5.455v6.286zM5.337 7.433c-1.144 0-2.063-.926-2.063-2.065 0-1.138.92-2.063 2.063-2.063 1.14 0 2.064.925 2.064 2.063 0 1.139-.925 2.065-2.064 2.065zm1.782 13.019H3.555V9h3.564v11.452zM22.225 0H1.771C.792 0 0 .774 0 1.729v20.542C0 23.227.792 24 1.771 24h20.451C23.2 24 24 23.227 24 22.271V1.729C24 .774 23.2 0 22.222 0h.003z"/>
        </symbol>
        <symbol id="icon-twitter" viewBox="0 0 24 24">
            <title>Twitter</title>
            <path class="path1" d="M23.954 4.569c-.885.389-1.83.654-2.825.775 1.014-.611 1.794-1.574 2.163-2.723-.951.555-2.005.959-3.127 1.184-.896-.959-2.173-1.559-3.591-1.559-2.717 0-4.92 2.203-4.92 4.917 0 .39.045.765.127 1.124C7.691 8.094 4.066 6.13 1.64 3.161c-.427.722-.666 1.561-.666 2.475 0 1.71.87 3.213 2.188 4.096-.807-.026-1.566-.248-2.228-.616v.061c0 2.385 1.693 4.374 3.946 4.827-.413.111-.849.171-1.296.171-.314 0-.615-.03-.916-.086.631 1.953 2.445 3.377 4.604 3.417-1.68 1.319-3.809 2.105-6.102 2.105-.39 0-.779-.023-1.17-.067 2.189 1.394 4.768 2.209 7.557 2.209 9.054 0 13.999-7.496 13.999-13.986 0-.209 0-.42-.015-.63.961-.689 1.8-1.56 2.46-2.548l-.047-.02z"></path>
        </symbol>
        <symbol id="icon-email" viewBox="0 0 24 24">
            <title>E-mail</title>
            <path d="M13.718 10.528c0 .792-.268 1.829-.684 2.642-1.009 1.98-3.063 1.967-3.063-.14 0-.786.27-1.799.687-2.58 1.021-1.925 3.06-1.624 3.06.078zm10.282 1.472c0 6.627-5.373 12-12 12s-12-5.373-12-12 5.373-12 12-12 12 5.373 12 12zm-5-1.194c0-3.246-2.631-5.601-6.256-5.601-4.967 0-7.744 3.149-7.744 7.073 0 3.672 2.467 6.517 7.024 6.517 2.52 0 4.124-.726 5.122-1.288l-.687-.991c-1.022.593-2.251 1.136-4.256 1.136-3.429 0-5.733-2.199-5.733-5.473 0-5.714 6.401-6.758 9.214-5.071 2.624 1.642 2.524 5.578.582 7.083-1.034.826-2.199.799-1.821-.756 0 0 1.212-4.489 1.354-4.975h-1.364l-.271.952c-.278-.785-.943-1.295-1.911-1.295-2.018 0-3.722 2.19-3.722 4.783 0 1.73.913 2.804 2.38 2.804 1.283 0 1.95-.726 2.364-1.373-.3 2.898 5.725 1.557 5.725-3.525z"></path>
        </symbol>
        <symbol id="icon-portfolio" viewBox="0 0 24 24">
            <title>Portfolio</title>
            <path d="M23 10h-22v-3h22v3zm-14-8c-1.104 0-2 .896-2 2v2h2v-1.5c0-.276.224-.5.5-.5h5c.276 0 .5.224.5.5v1.5h2v-2c0-1.104-.896-2-2-2h-6zm15 10h-24l2 10h20l2-10z"></path>
        </symbol>
    </defs>
</svg>